<svg width="1338" height="1337" viewBox="0 0 1338 1337" fill="none" xmlns="http://www.w3.org/2000/svg">
<path d="M72.6741 611.655C-23.0043 515.976 -23.0041 360.851 72.6743 265.173L266.088 71.7592C361.766 -23.9193 516.892 -23.9195 612.57 71.759L1265.36 724.544C1361.03 820.223 1361.03 975.348 1265.36 1071.03L1071.94 1264.44C976.264 1360.12 821.138 1360.12 725.46 1264.44L72.6741 611.655Z" fill="#D9D9D9"/>
<path d="M612.115 1264.44C516.437 1360.12 361.312 1360.12 265.633 1264.44L72.2199 1071.03C-23.4586 975.348 -23.4588 820.223 72.2197 724.544L725.005 71.7587C820.684 -23.9197 975.809 -23.9195 1071.49 71.759L1264.9 265.172C1360.58 360.851 1360.58 515.976 1264.9 611.655L612.115 1264.44Z" fill="#D9D9D9"/>
<path opacity="0.5" d="M473.653 591.518H442.83C441.007 582.652 437.817 574.863 433.259 568.151C428.785 561.439 423.316 555.805 416.853 551.248C410.473 546.608 403.388 543.127 395.599 540.807C387.811 538.487 379.69 537.327 371.239 537.327C355.827 537.327 341.865 541.222 329.353 549.01C316.924 556.799 307.022 568.275 299.648 583.439C292.356 598.602 288.71 617.204 288.71 639.245C288.71 661.286 292.356 679.888 299.648 695.051C307.022 710.214 316.924 721.69 329.353 729.479C341.865 737.268 355.827 741.162 371.239 741.162C379.69 741.162 387.811 740.002 395.599 737.682C403.388 735.362 410.473 731.924 416.853 727.366C423.316 722.726 428.785 717.05 433.259 710.339C437.817 703.544 441.007 695.755 442.83 686.972H473.653C471.333 699.981 467.107 711.623 460.976 721.898C454.844 732.172 447.221 740.914 438.107 748.123C428.992 755.249 418.759 760.676 407.407 764.405C396.138 768.133 384.082 769.998 371.239 769.998C349.529 769.998 330.223 764.695 313.32 754.089C296.416 743.483 283.117 728.402 273.423 708.847C263.728 689.292 258.881 666.091 258.881 639.245C258.881 612.398 263.728 589.198 273.423 569.643C283.117 550.088 296.416 535.007 313.32 524.401C330.223 513.795 349.529 508.492 371.239 508.492C384.082 508.492 396.138 510.356 407.407 514.085C418.759 517.814 428.992 523.282 438.107 530.491C447.221 537.617 454.844 546.318 460.976 556.592C467.107 566.784 471.333 578.426 473.653 591.518ZM597.042 770.495C579.807 770.495 564.685 766.393 551.676 758.19C538.75 749.987 528.641 738.511 521.35 723.762C514.141 709.013 510.536 691.778 510.536 672.057C510.536 652.171 514.141 634.812 521.35 619.98C528.641 605.148 538.75 593.63 551.676 585.427C564.685 577.224 579.807 573.123 597.042 573.123C614.277 573.123 629.357 577.224 642.284 585.427C655.293 593.63 665.401 605.148 672.61 619.98C679.902 634.812 683.548 652.171 683.548 672.057C683.548 691.778 679.902 709.013 672.61 723.762C665.401 738.511 655.293 749.987 642.284 758.19C629.357 766.393 614.277 770.495 597.042 770.495ZM597.042 744.145C610.134 744.145 620.906 740.79 629.357 734.078C637.809 727.366 644.065 718.542 648.125 707.604C652.185 696.667 654.215 684.818 654.215 672.057C654.215 659.297 652.185 647.407 648.125 636.386C644.065 625.366 637.809 616.458 629.357 609.664C620.906 602.869 610.134 599.472 597.042 599.472C583.95 599.472 573.178 602.869 564.727 609.664C556.275 616.458 550.019 625.366 545.959 636.386C541.899 647.407 539.869 659.297 539.869 672.057C539.869 684.818 541.899 696.667 545.959 707.604C550.019 718.542 556.275 727.366 564.727 734.078C573.178 740.79 583.95 744.145 597.042 744.145ZM757.656 651.674V766.518H728.323V575.608H756.661V605.438H759.147C763.621 595.743 770.416 587.955 779.531 582.072C788.645 576.106 800.411 573.123 814.829 573.123C827.755 573.123 839.065 575.774 848.76 581.077C858.455 586.297 865.995 594.252 871.381 604.941C876.767 615.547 879.46 628.97 879.46 645.211V766.518H850.127V647.199C850.127 632.202 846.233 620.519 838.444 612.15C830.655 603.698 819.966 599.472 806.377 599.472C797.014 599.472 788.645 601.502 781.271 605.562C773.979 609.622 768.22 615.547 763.994 623.336C759.768 631.125 757.656 640.571 757.656 651.674ZM1068.29 618.364L1041.94 625.822C1040.28 621.43 1037.84 617.163 1034.6 613.02C1031.46 608.794 1027.15 605.314 1021.68 602.579C1016.21 599.845 1009.21 598.478 1000.67 598.478C988.99 598.478 979.254 601.171 971.465 606.557C963.759 611.86 959.906 618.613 959.906 626.816C959.906 634.108 962.558 639.866 967.861 644.092C973.164 648.318 981.45 651.84 992.719 654.657L1021.06 661.617C1038.13 665.76 1050.84 672.099 1059.21 680.633C1067.58 689.085 1071.77 699.981 1071.77 713.322C1071.77 724.259 1068.62 734.037 1062.32 742.654C1056.11 751.271 1047.41 758.066 1036.22 763.037C1025.03 768.009 1012.02 770.495 997.193 770.495C977.721 770.495 961.605 766.269 948.844 757.817C936.084 749.366 928.005 737.019 924.608 720.779L952.449 713.819C955.1 724.093 960.113 731.799 967.488 736.937C974.945 742.074 984.681 744.643 996.696 744.643C1010.37 744.643 1021.22 741.742 1029.26 735.942C1037.38 730.059 1041.44 723.016 1041.44 714.813C1041.44 708.184 1039.12 702.633 1034.48 698.158C1029.84 693.601 1022.71 690.204 1013.1 687.966L981.284 680.509C963.8 676.366 950.957 669.944 942.754 661.244C934.634 652.461 930.574 641.482 930.574 628.307C930.574 617.536 933.598 608.007 939.647 599.721C945.778 591.435 954.106 584.93 964.629 580.207C975.235 575.484 987.25 573.123 1000.67 573.123C1019.57 573.123 1034.4 577.266 1045.17 585.552C1056.02 593.838 1063.73 604.775 1068.29 618.364Z" fill="black"/>
</svg>
