<svg width="1351" height="1351" viewBox="0 0 1351 1351" fill="none" xmlns="http://www.w3.org/2000/svg">
<circle cx="675.5" cy="675.5" r="675.5" fill="#D9D9D9"/>
<!-- <path opacity="0.5" d="M362.824 792V537.455H448.832C468.802 537.455 485.125 541.059 497.803 548.268C510.563 555.394 520.009 565.047 526.141 577.227C532.272 589.408 535.338 602.997 535.338 617.994C535.338 632.992 532.272 646.622 526.141 658.886C520.092 671.149 510.729 680.926 498.051 688.218C485.374 695.427 469.133 699.031 449.33 699.031H387.682V671.688H448.335C462.007 671.688 472.986 669.326 481.272 664.603C489.558 659.88 495.565 653.5 499.294 645.462C503.106 637.342 505.011 628.186 505.011 617.994C505.011 607.803 503.106 598.688 499.294 590.651C495.565 582.613 489.517 576.316 481.148 571.759C472.779 567.118 461.676 564.798 447.838 564.798H393.648V792H362.824ZM581.015 792V601.091H609.353V629.926H611.341C614.821 620.48 621.119 612.816 630.233 606.933C639.348 601.049 649.623 598.108 661.057 598.108C663.212 598.108 665.904 598.149 669.136 598.232C672.368 598.315 674.812 598.439 676.469 598.605V628.435C675.475 628.186 673.196 627.813 669.633 627.316C666.153 626.736 662.466 626.446 658.571 626.446C649.291 626.446 641.005 628.393 633.713 632.288C626.505 636.099 620.787 641.402 616.561 648.197C612.418 654.908 610.347 662.573 610.347 671.19V792H581.015ZM782.985 795.977C765.751 795.977 750.629 791.876 737.62 783.673C724.694 775.469 714.585 763.993 707.293 749.244C700.084 734.495 696.48 717.26 696.48 697.54C696.48 677.653 700.084 660.294 707.293 645.462C714.585 630.63 724.694 619.113 737.62 610.91C750.629 602.707 765.751 598.605 782.985 598.605C800.22 598.605 815.301 602.707 828.227 610.91C841.236 619.113 851.345 630.63 858.554 645.462C865.845 660.294 869.491 677.653 869.491 697.54C869.491 717.26 865.845 734.495 858.554 749.244C851.345 763.993 841.236 775.469 828.227 783.673C815.301 791.876 800.22 795.977 782.985 795.977ZM782.985 769.628C796.077 769.628 806.849 766.272 815.301 759.56C823.752 752.849 830.008 744.024 834.069 733.087C838.129 722.149 840.159 710.3 840.159 697.54C840.159 684.779 838.129 672.889 834.069 661.869C830.008 650.848 823.752 641.941 815.301 635.146C806.849 628.352 796.077 624.955 782.985 624.955C769.894 624.955 759.122 628.352 750.67 635.146C742.218 641.941 735.962 650.848 731.902 661.869C727.842 672.889 725.812 684.779 725.812 697.54C725.812 710.3 727.842 722.149 731.902 733.087C735.962 744.024 742.218 752.849 750.67 759.56C759.122 766.272 769.894 769.628 782.985 769.628ZM1049.49 643.847L1023.14 651.304C1021.49 646.912 1019.04 642.645 1015.81 638.502C1012.66 634.276 1008.35 630.796 1002.89 628.062C997.416 625.327 990.415 623.96 981.88 623.96C970.197 623.96 960.461 626.653 952.672 632.039C944.966 637.342 941.113 644.095 941.113 652.298C941.113 659.59 943.765 665.349 949.068 669.575C954.371 673.8 962.657 677.322 973.926 680.139L1002.26 687.099C1019.33 691.242 1032.05 697.581 1040.42 706.116C1048.79 714.567 1052.97 725.464 1052.97 738.804C1052.97 749.741 1049.83 759.519 1043.53 768.136C1037.31 776.754 1028.61 783.548 1017.43 788.52C1006.24 793.491 993.232 795.977 978.4 795.977C958.928 795.977 942.812 791.751 930.051 783.3C917.291 774.848 909.212 762.502 905.815 746.261L933.656 739.301C936.307 749.576 941.32 757.282 948.695 762.419C956.152 767.556 965.888 770.125 977.903 770.125C991.575 770.125 1002.43 767.225 1010.47 761.425C1018.59 755.542 1022.65 748.499 1022.65 740.295C1022.65 733.667 1020.33 728.115 1015.69 723.641C1011.05 719.083 1003.92 715.686 994.309 713.449L962.491 705.991C945.008 701.848 932.164 695.427 923.961 686.727C915.841 677.943 911.781 666.964 911.781 653.79C911.781 643.018 914.805 633.489 920.854 625.203C926.986 616.917 935.313 610.413 945.836 605.69C956.442 600.967 968.457 598.605 981.88 598.605C1000.77 598.605 1015.6 602.748 1026.38 611.034C1037.23 619.32 1044.94 630.258 1049.49 643.847Z" fill="black"/> -->
</svg>
