<svg width="663" height="19" viewBox="0 0 663 19" fill="none" xmlns="http://www.w3.org/2000/svg">
<circle cx="413" cy="10" r="7" stroke="black" stroke-width="2"/>
<path d="M598 3C594.134 3 591 6.13401 591 10" stroke="#B60E3C" stroke-width="1.5"/>
<path d="M605 10C605 6.13401 601.866 3 598 3" stroke="#C7611E" stroke-width="1.5"/>
<path d="M598 17C601.866 17 605 13.866 605 10" stroke="#00A0E2" stroke-width="1.5"/>
<path d="M591 10C591 13.866 594.134 17 598 17" stroke="#00AB6E" stroke-width="1.5"/>
<path d="M471.09 1.99379C471.888 1.99379 472.586 2.29193 473.084 2.78882L474.181 3.88199C475.277 4.97516 475.277 6.76398 474.181 7.85714L473.782 8.25466L473.084 8.95031L473.782 9.64596L474.181 10.0435C475.277 11.1366 475.277 12.9255 474.181 14.0186L473.084 15.1118C472.586 15.6087 471.788 15.9068 471.09 15.9068C470.293 15.9068 469.595 15.6087 469.097 15.1118L468.698 14.7143L468 14.0186L467.302 14.7143L466.903 15.1118C466.405 15.6087 465.707 15.9068 464.91 15.9068C464.112 15.9068 463.414 15.6087 462.916 15.1118L461.819 14.0186C461.321 13.5217 461.022 12.7267 461.022 12.0311C461.022 11.236 461.321 10.5404 461.819 10.0435L462.218 9.64596L462.916 8.95031L462.218 8.25466L461.819 7.95652C460.723 6.86335 460.723 5.07453 461.819 3.98137L462.916 2.8882C463.414 2.3913 464.212 2.09317 464.91 2.09317C465.607 2.09317 466.405 2.3913 466.903 2.8882L467.302 3.28571L468 3.98137L468.698 3.28571L469.097 2.78882C469.595 2.29193 470.293 1.99379 471.09 1.99379ZM471.09 1C470.093 1 469.097 1.39752 468.399 2.09317L468 2.49068L467.701 2.09317C466.903 1.39752 465.907 1 465.009 1C464.012 1 463.016 1.39752 462.318 2.09317L461.121 3.28571C459.626 4.7764 459.626 7.16149 461.121 8.65217L461.421 8.95031L461.121 9.34783C459.626 10.8385 459.626 13.2236 461.121 14.7143L462.218 15.8075C462.916 16.5031 463.913 16.9006 464.91 16.9006C465.907 16.9006 466.903 16.5031 467.601 15.8075L468 15.5093L468.399 15.9068C469.097 16.6025 470.093 17 471.09 17C472.087 17 473.084 16.6025 473.782 15.9068L474.879 14.8137C476.374 13.323 476.374 10.9379 474.879 9.44721L474.48 9.04969L474.879 8.55279C476.374 7.06211 476.374 4.67702 474.879 3.18634L473.782 2.09317C473.084 1.39752 472.087 1 471.09 1Z" stroke="black"/>
<rect x="514" y="2" width="16" height="16" fill="#400000"/>
<rect x="70" y="2" width="16" height="16" fill="#B60E3C"/>
<rect x="577" y="3.06066" width="9.81371" height="9.81371" rx="1.25" transform="rotate(45 577 3.06066)" stroke="#FF0606" stroke-width="1.5"/>
<path d="M430.472 5.746H431.984V6.236C431.984 8.602 430.836 10.702 428.372 11.472L427.462 10.016C429.562 9.358 430.472 7.804 430.472 6.236V5.746ZM430.808 5.746H432.334V6.236C432.334 7.678 433.216 9.176 435.316 9.792L434.42 11.248C431.97 10.534 430.808 8.49 430.808 6.236V5.746ZM427.924 4.822H434.882V6.278H427.924V4.822ZM430.472 3.38H432.334V5.396H430.472V3.38ZM435.904 3.282H437.766V12.886H435.904V3.282ZM437.234 7.118H439.488V8.63H437.234V7.118ZM429.408 14.538H438.228V16.022H429.408V14.538ZM429.408 12.046H431.27V15.504H429.408V12.046ZM443.449 3.954H445.003V5.116C445.003 7.72 443.841 10.002 441.293 10.856L440.327 9.358C442.539 8.644 443.449 6.894 443.449 5.116V3.954ZM443.841 3.954H445.339V5.032C445.339 6.754 446.179 8.35 448.237 9.008L447.271 10.464C444.877 9.638 443.841 7.552 443.841 5.032V3.954ZM449.427 3.282H451.289V10.87H449.427V3.282ZM446.893 11.206C449.637 11.206 451.331 12.144 451.331 13.726C451.331 15.322 449.637 16.246 446.893 16.246C444.149 16.246 442.455 15.322 442.455 13.726C442.455 12.144 444.149 11.206 446.893 11.206ZM446.893 12.648C445.213 12.648 444.317 12.998 444.317 13.726C444.317 14.454 445.213 14.818 446.893 14.818C448.587 14.818 449.483 14.454 449.483 13.726C449.483 12.998 448.587 12.648 446.893 12.648ZM447.061 5.634H449.693V7.146H447.061V5.634Z" fill="black"/>
<path d="M101.45 3.268H103.326V16.274H101.45V3.268ZM96.34 4.178C98.3 4.178 99.742 5.97 99.742 8.798C99.742 11.654 98.3 13.446 96.34 13.446C94.38 13.446 92.938 11.654 92.938 8.798C92.938 5.97 94.38 4.178 96.34 4.178ZM96.34 5.872C95.374 5.872 94.716 6.894 94.716 8.798C94.716 10.73 95.374 11.766 96.34 11.766C97.306 11.766 97.95 10.73 97.95 8.798C97.95 6.894 97.306 5.872 96.34 5.872ZM110.017 4.654H111.669V4.962C111.669 7.02 109.933 8.756 106.629 9.134L105.957 7.664C108.771 7.356 110.017 6.082 110.017 4.962V4.654ZM110.927 4.654H112.579V4.962C112.579 6.096 113.839 7.356 116.653 7.664L115.967 9.134C112.677 8.756 110.927 7.034 110.927 4.962V4.654ZM106.503 3.842H116.107V5.298H106.503V3.842ZM105.439 9.736H117.171V11.22H105.439V9.736ZM110.521 10.674H112.397V13.404H110.521V10.674ZM106.797 14.538H115.883V16.022H106.797V14.538ZM106.797 12.298H108.645V15.056H106.797V12.298ZM124.94 5.69H127.572V7.202H124.94V5.69ZM121.286 3.954H122.812V5.172C122.812 7.734 121.678 9.96 119.214 10.814L118.234 9.344C120.404 8.63 121.286 6.922 121.286 5.172V3.954ZM121.664 3.954H123.162V5.284C123.162 6.894 124.03 8.476 126.06 9.134L125.094 10.59C122.742 9.778 121.664 7.678 121.664 5.284V3.954ZM120.334 11.584H129.168V16.246H127.306V13.054H120.334V11.584ZM127.306 3.282H129.168V10.996H127.306V3.282Z" fill="black"/>
<rect x="137" y="2" width="16" height="16" fill="#C7611E"/>
<path d="M167.904 3.282H169.766V11.052H167.904V3.282ZM169.248 6.432H171.488V7.958H169.248V6.432ZM161.114 11.626H169.766V16.246H167.904V13.11H161.114V11.626ZM159.938 4.094H161.786V5.802H164.32V4.094H166.168V10.394H159.938V4.094ZM161.786 7.23V8.938H164.32V7.23H161.786ZM175.715 11.85H177.577V16.036H175.715V11.85ZM181.441 3.296H183.289V16.26H181.441V3.296ZM172.719 12.76L172.509 11.29C174.987 11.29 178.053 11.276 180.741 10.982L180.867 12.312C178.067 12.732 175.141 12.76 172.719 12.76ZM172.859 4.514H180.447V5.928H172.859V4.514ZM176.653 6.292C178.515 6.292 179.817 7.174 179.817 8.49C179.817 9.806 178.515 10.702 176.653 10.702C174.777 10.702 173.475 9.806 173.475 8.49C173.475 7.174 174.777 6.292 176.653 6.292ZM176.653 7.65C175.799 7.65 175.239 7.93 175.239 8.49C175.239 9.05 175.799 9.33 176.653 9.33C177.493 9.33 178.053 9.05 178.053 8.49C178.053 7.93 177.493 7.65 176.653 7.65ZM175.715 3.184H177.577V5.41H175.715V3.184ZM185.78 9.204H186.872C189.42 9.204 190.988 9.148 192.78 8.812L192.948 10.296C191.128 10.646 189.49 10.716 186.872 10.716H185.78V9.204ZM185.766 3.996H191.688V7.986H187.628V9.918H185.78V6.6H189.854V5.48H185.766V3.996ZM193.662 3.296H195.524V11.164H193.662V3.296ZM194.992 6.376H197.246V7.902H194.992V6.376ZM186.872 11.752H195.524V16.246H193.662V13.236H186.872V11.752Z" fill="black"/>
<rect x="204" y="2" width="16" height="16" fill="#00AB6E"/>
<path d="M231.432 4.024H233.392C233.392 7.468 231.194 9.806 227.33 10.8L226.63 9.344C229.808 8.546 231.432 6.894 231.432 4.948V4.024ZM227.372 4.024H232.636V5.48H227.372V4.024ZM235.464 3.282H237.34V10.506H235.464V3.282ZM228.758 11.052H237.34V16.106H228.758V11.052ZM235.506 12.522H230.592V14.636H235.506V12.522ZM244.353 7.93H246.201V10.254H244.353V7.93ZM239.439 9.484H251.157V10.954H239.439V9.484ZM245.277 11.668C248.091 11.668 249.771 12.494 249.771 13.964C249.771 15.434 248.091 16.246 245.277 16.246C242.463 16.246 240.769 15.434 240.769 13.964C240.769 12.494 242.463 11.668 245.277 11.668ZM245.277 13.068C243.527 13.068 242.659 13.348 242.659 13.964C242.659 14.594 243.527 14.86 245.277 14.86C247.027 14.86 247.895 14.594 247.895 13.964C247.895 13.348 247.027 13.068 245.277 13.068ZM244.017 4.5H245.669V4.822C245.669 6.768 243.919 8.35 240.573 8.672L239.929 7.202C242.771 6.964 244.017 5.83 244.017 4.822V4.5ZM244.927 4.5H246.579V4.822C246.579 5.83 247.811 6.964 250.667 7.202L250.023 8.672C246.691 8.35 244.927 6.782 244.927 4.822V4.5ZM240.503 3.814H250.107V5.284H240.503V3.814ZM261.684 3.282H263.448V16.246H261.684V3.282ZM259.948 8.266H262.104V9.764H259.948V8.266ZM258.786 3.506H260.508V15.63H258.786V3.506ZM252.682 11.794H253.592C255.188 11.794 256.518 11.738 258.058 11.458L258.198 12.97C256.63 13.278 255.258 13.32 253.592 13.32H252.682V11.794ZM252.682 4.78H257.47V6.278H254.53V12.522H252.682V4.78Z" fill="black"/>
<rect x="271" y="2" width="16" height="16" fill="#00A0E2"/>
<path d="M296.444 4.724H297.97V5.536C297.97 8.014 296.808 10.24 294.302 11.066L293.378 9.596C295.534 8.882 296.444 7.188 296.444 5.536V4.724ZM296.822 4.724H298.334V5.536C298.334 7.048 299.202 8.532 301.288 9.162L300.406 10.618C297.942 9.876 296.822 7.846 296.822 5.536V4.724ZM293.868 4.15H300.868V5.634H293.868V4.15ZM301.904 3.282H303.766V10.968H301.904V3.282ZM303.248 6.264H305.488V7.79H303.248V6.264ZM299.538 11.206C302.226 11.206 303.92 12.144 303.92 13.726C303.92 15.308 302.226 16.246 299.538 16.246C296.836 16.246 295.142 15.308 295.142 13.726C295.142 12.144 296.836 11.206 299.538 11.206ZM299.538 12.662C297.886 12.662 296.99 12.998 296.99 13.726C296.99 14.454 297.886 14.818 299.538 14.818C301.19 14.818 302.072 14.454 302.072 13.726C302.072 12.998 301.19 12.662 299.538 12.662ZM312.683 5.326H315.721V6.81H312.683V5.326ZM312.585 8.014H315.623V9.498H312.585V8.014ZM315.427 3.282H317.289V10.744H315.427V3.282ZM311.199 4.164H313.187C313.187 7.692 311.199 9.96 307.265 11.038L306.537 9.568C309.827 8.714 311.199 7.09 311.199 5.06V4.164ZM307.251 4.164H312.501V5.648H307.251V4.164ZM312.991 10.912C315.623 10.912 317.373 11.92 317.373 13.544C317.373 15.168 315.623 16.19 312.991 16.19C310.359 16.19 308.609 15.168 308.609 13.544C308.609 11.92 310.359 10.912 312.991 10.912ZM312.991 12.34C311.409 12.34 310.457 12.746 310.457 13.544C310.457 14.342 311.409 14.734 312.991 14.734C314.587 14.734 315.539 14.342 315.539 13.544C315.539 12.746 314.587 12.34 312.991 12.34ZM319.752 11.752H320.662C322.552 11.752 323.756 11.724 325.212 11.5L325.366 13.012C323.882 13.264 322.594 13.292 320.662 13.292H319.752V11.752ZM319.752 4.626H324.988V6.11H321.516V12.368H319.752V4.626ZM321.012 8.014H324.736V9.456H321.012V8.014ZM328.684 3.282H330.462V16.246H328.684V3.282ZM327.13 8.294H329.272V9.792H327.13V8.294ZM325.884 3.478H327.634V15.658H325.884V3.478Z" fill="black"/>
<rect x="338" y="2" width="16" height="16" fill="#808080"/>
<path d="M363.71 4.724H365.25V5.816C365.25 8.266 364.06 10.478 361.568 11.29L360.616 9.834C362.772 9.134 363.71 7.454 363.71 5.816V4.724ZM364.088 4.724H365.614V5.816C365.614 7.356 366.538 8.938 368.652 9.61L367.7 11.052C365.264 10.282 364.088 8.168 364.088 5.816V4.724ZM361.106 4.206H368.162V5.676H361.106V4.206ZM369.464 3.296H371.34V12.648H369.464V3.296ZM362.702 14.538H371.662V16.022H362.702V14.538ZM362.702 11.808H364.564V15.28H362.702V11.808ZM382.721 3.282H384.485V11.402H382.721V3.282ZM381.139 6.474H383.211V7.986H381.139V6.474ZM380.033 3.534H381.769V10.982H380.033V3.534ZM373.383 4.612H379.669V6.04H373.383V4.612ZM376.547 6.46C378.171 6.46 379.347 7.384 379.347 8.728C379.347 10.072 378.171 10.982 376.547 10.982C374.923 10.982 373.747 10.072 373.747 8.728C373.747 7.384 374.923 6.46 376.547 6.46ZM376.547 7.79C375.861 7.79 375.399 8.126 375.399 8.728C375.399 9.33 375.861 9.666 376.547 9.666C377.219 9.666 377.681 9.33 377.681 8.728C377.681 8.126 377.219 7.79 376.547 7.79ZM375.609 3.408H377.443V5.592H375.609V3.408ZM380.103 11.542C382.875 11.542 384.555 12.382 384.555 13.894C384.555 15.392 382.875 16.246 380.103 16.246C377.317 16.246 375.637 15.392 375.637 13.894C375.637 12.382 377.317 11.542 380.103 11.542ZM380.103 12.928C378.367 12.928 377.499 13.222 377.499 13.894C377.499 14.552 378.367 14.86 380.103 14.86C381.825 14.86 382.693 14.552 382.693 13.894C382.693 13.222 381.825 12.928 380.103 12.928ZM389.23 5.326H390.7V6.782C390.7 9.708 389.468 12.69 387.088 13.81L386.038 12.34C388.18 11.332 389.23 8.91 389.23 6.782V5.326ZM389.622 5.326H391.092V6.782C391.092 8.742 392.1 11.038 394.228 12.018L393.206 13.488C390.826 12.382 389.622 9.54 389.622 6.782V5.326ZM386.542 4.528H393.654V6.054H386.542V4.528ZM394.606 3.282H396.482V16.246H394.606V3.282ZM396.062 8.224H398.358V9.764H396.062V8.224Z" fill="black"/>
<path d="M0.884943 15V4.81818H3.03764V13.2251H7.4027V15H0.884943ZM12.2686 15.1491C11.4831 15.1491 10.807 14.9901 10.2402 14.6719C9.67679 14.3504 9.2426 13.8963 8.93768 13.3097C8.63275 12.7197 8.48029 12.022 8.48029 11.2166C8.48029 10.4311 8.63275 9.74171 8.93768 9.14844C9.2426 8.55516 9.67182 8.0928 10.2253 7.76136C10.7821 7.42992 11.4351 7.2642 12.1841 7.2642C12.6879 7.2642 13.1569 7.34541 13.5911 7.50781C14.0286 7.6669 14.4097 7.9072 14.7346 8.22869C15.0627 8.55019 15.3179 8.95455 15.5002 9.44176C15.6825 9.92566 15.7736 10.4924 15.7736 11.142V11.7237H9.32546V10.4112H13.78C13.78 10.1063 13.7137 9.83617 13.5811 9.60085C13.4486 9.36553 13.2646 9.18158 13.0293 9.04901C12.7973 8.91312 12.5272 8.84517 12.2189 8.84517C11.8974 8.84517 11.6124 8.91974 11.3638 9.06889C11.1185 9.21473 10.9263 9.41193 10.7871 9.66051C10.6479 9.90578 10.5766 10.1792 10.5733 10.4808V11.7287C10.5733 12.1065 10.6429 12.433 10.7821 12.7081C10.9247 12.9832 11.1252 13.1953 11.3837 13.3445C11.6422 13.4936 11.9488 13.5682 12.3034 13.5682C12.5388 13.5682 12.7542 13.535 12.9498 13.4688C13.1453 13.4025 13.3127 13.303 13.4519 13.1705C13.5911 13.0379 13.6971 12.8755 13.7701 12.6832L15.7289 12.8125C15.6294 13.2831 15.4256 13.6941 15.1174 14.0455C14.8124 14.3935 14.418 14.6652 13.9341 14.8608C13.4535 15.053 12.8984 15.1491 12.2686 15.1491ZM20.5961 18.0227C19.91 18.0227 19.3217 17.9283 18.8311 17.7393C18.3439 17.5537 17.9561 17.3002 17.6678 16.9787C17.3794 16.6572 17.1922 16.2959 17.106 15.8949L19.0648 15.6314C19.1245 15.7839 19.2189 15.9264 19.3482 16.0589C19.4775 16.1915 19.6481 16.2976 19.8603 16.3771C20.0757 16.46 20.3375 16.5014 20.6458 16.5014C21.1065 16.5014 21.486 16.3887 21.7843 16.1634C22.0859 15.9413 22.2367 15.5684 22.2367 15.0447V13.6477H22.1472C22.0544 13.8598 21.9152 14.0604 21.7296 14.2493C21.544 14.4382 21.3053 14.5923 21.0137 14.7116C20.722 14.831 20.374 14.8906 19.9696 14.8906C19.3962 14.8906 18.8742 14.758 18.4036 14.4929C17.9363 14.2244 17.5634 13.8151 17.285 13.2649C17.0099 12.7114 16.8723 12.0121 16.8723 11.1669C16.8723 10.3018 17.0132 9.57931 17.2949 8.99929C17.5766 8.41927 17.9512 7.98509 18.4185 7.69673C18.8891 7.40838 19.4045 7.2642 19.9647 7.2642C20.3922 7.2642 20.7502 7.33712 21.0385 7.48295C21.3269 7.62547 21.5589 7.80445 21.7346 8.01989C21.9135 8.23201 22.0511 8.44081 22.1472 8.64631H22.2267V7.36364H24.3297V15.0746C24.3297 15.7242 24.1706 16.2678 23.8525 16.7053C23.5343 17.1428 23.0935 17.4709 22.53 17.6896C21.9699 17.9117 21.3252 18.0227 20.5961 18.0227ZM20.6408 13.2997C20.9822 13.2997 21.2705 13.2152 21.5059 13.0462C21.7445 12.8738 21.9268 12.6286 22.0527 12.3104C22.182 11.9889 22.2466 11.6044 22.2466 11.157C22.2466 10.7095 22.1837 10.3217 22.0577 9.99361C21.9318 9.66217 21.7495 9.4053 21.5108 9.22301C21.2722 9.04072 20.9822 8.94957 20.6408 8.94957C20.2928 8.94957 19.9995 9.04403 19.7608 9.23295C19.5222 9.41856 19.3416 9.67708 19.2189 10.0085C19.0963 10.34 19.035 10.7228 19.035 11.157C19.035 11.5978 19.0963 11.9789 19.2189 12.3004C19.3449 12.6186 19.5255 12.8655 19.7608 13.0412C19.9995 13.2135 20.2928 13.2997 20.6408 13.2997ZM29.4952 15.1491C28.7097 15.1491 28.0336 14.9901 27.4668 14.6719C26.9033 14.3504 26.4692 13.8963 26.1642 13.3097C25.8593 12.7197 25.7069 12.022 25.7069 11.2166C25.7069 10.4311 25.8593 9.74171 26.1642 9.14844C26.4692 8.55516 26.8984 8.0928 27.4519 7.76136C28.0087 7.42992 28.6616 7.2642 29.4107 7.2642C29.9145 7.2642 30.3835 7.34541 30.8176 7.50781C31.2551 7.6669 31.6363 7.9072 31.9611 8.22869C32.2892 8.55019 32.5444 8.95455 32.7267 9.44176C32.909 9.92566 33.0002 10.4924 33.0002 11.142V11.7237H26.552V10.4112H31.0066C31.0066 10.1063 30.9403 9.83617 30.8077 9.60085C30.6751 9.36553 30.4912 9.18158 30.2559 9.04901C30.0239 8.91312 29.7537 8.84517 29.4455 8.84517C29.124 8.84517 28.839 8.91974 28.5904 9.06889C28.3451 9.21473 28.1529 9.41193 28.0137 9.66051C27.8745 9.90578 27.8032 10.1792 27.7999 10.4808V11.7287C27.7999 12.1065 27.8695 12.433 28.0087 12.7081C28.1512 12.9832 28.3517 13.1953 28.6103 13.3445C28.8688 13.4936 29.1754 13.5682 29.53 13.5682C29.7653 13.5682 29.9808 13.535 30.1763 13.4688C30.3719 13.4025 30.5392 13.303 30.6784 13.1705C30.8176 13.0379 30.9237 12.8755 30.9966 12.6832L32.9554 12.8125C32.856 13.2831 32.6522 13.6941 32.3439 14.0455C32.039 14.3935 31.6446 14.6652 31.1607 14.8608C30.6801 15.053 30.1249 15.1491 29.4952 15.1491ZM36.5002 10.5852V15H34.3823V7.36364H36.4007V8.71094H36.4902C36.6593 8.26681 36.9426 7.91548 37.3404 7.65696C37.7381 7.39512 38.2203 7.2642 38.7871 7.2642C39.3174 7.2642 39.7798 7.38021 40.1742 7.61222C40.5686 7.84422 40.8752 8.17566 41.0939 8.60653C41.3127 9.03409 41.4221 9.54451 41.4221 10.1378V15H39.3042V10.5156C39.3075 10.0483 39.1882 9.68371 38.9462 9.42188C38.7042 9.15672 38.3712 9.02415 37.9469 9.02415C37.6619 9.02415 37.41 9.08546 37.1912 9.2081C36.9758 9.33073 36.8068 9.50971 36.6841 9.74503C36.5648 9.97704 36.5035 10.2571 36.5002 10.5852ZM45.9052 15.1243C45.3252 15.1243 44.7998 14.9751 44.3292 14.6768C43.8619 14.3752 43.4906 13.9328 43.2156 13.3494C42.9438 12.7628 42.8079 12.0436 42.8079 11.1918C42.8079 10.3168 42.9487 9.58925 43.2305 9.00923C43.5122 8.4259 43.8867 7.99006 44.354 7.7017C44.8247 7.41004 45.3401 7.2642 45.9002 7.2642C46.3278 7.2642 46.6841 7.33712 46.9691 7.48295C47.2575 7.62547 47.4895 7.80445 47.6651 8.01989C47.8441 8.23201 47.98 8.44081 48.0728 8.64631H48.1374V4.81818H50.2504V15H48.1623V13.777H48.0728C47.9734 13.9891 47.8325 14.1996 47.6502 14.4084C47.4712 14.6139 47.2376 14.7846 46.9492 14.9205C46.6642 15.0563 46.3162 15.1243 45.9052 15.1243ZM46.5763 13.4389C46.9177 13.4389 47.2061 13.3461 47.4414 13.1605C47.68 12.9716 47.8623 12.7081 47.9883 12.37C48.1175 12.032 48.1822 11.6359 48.1822 11.1818C48.1822 10.7277 48.1192 10.3333 47.9933 9.99858C47.8673 9.66383 47.685 9.4053 47.4464 9.22301C47.2077 9.04072 46.9177 8.94957 46.5763 8.94957C46.2283 8.94957 45.935 9.04403 45.6964 9.23295C45.4577 9.42187 45.2771 9.68371 45.1545 10.0185C45.0318 10.3532 44.9705 10.741 44.9705 11.1818C44.9705 11.6259 45.0318 12.0187 45.1545 12.3601C45.2804 12.6982 45.4611 12.9633 45.6964 13.1555C45.935 13.3445 46.2283 13.4389 46.5763 13.4389ZM58.3453 9.54119L56.4064 9.66051C56.3733 9.49479 56.302 9.34564 56.1926 9.21307C56.0833 9.07718 55.9391 8.96946 55.7601 8.88991C55.5845 8.80705 55.374 8.76562 55.1287 8.76562C54.8006 8.76562 54.5239 8.83523 54.2985 8.97443C54.0731 9.11032 53.9604 9.29261 53.9604 9.52131C53.9604 9.7036 54.0333 9.85772 54.1792 9.98366C54.325 10.1096 54.5752 10.2107 54.9299 10.2869L56.312 10.5653C57.0544 10.7178 57.6079 10.9631 57.9725 11.3011C58.3371 11.6392 58.5194 12.0833 58.5194 12.6335C58.5194 13.134 58.3719 13.5732 58.0769 13.951C57.7852 14.3288 57.3842 14.6238 56.8738 14.8359C56.3667 15.0447 55.7817 15.1491 55.1188 15.1491C54.1079 15.1491 53.3025 14.9387 52.7026 14.5178C52.106 14.0935 51.7563 13.5168 51.6536 12.7876L53.7367 12.6783C53.7997 12.9865 53.9521 13.2218 54.1941 13.3842C54.436 13.5433 54.7459 13.6229 55.1238 13.6229C55.495 13.6229 55.7933 13.5516 56.0186 13.4091C56.2473 13.2633 56.3633 13.076 56.3667 12.8473C56.3633 12.6551 56.2821 12.4976 56.123 12.375C55.964 12.2491 55.7187 12.1529 55.3873 12.0866L54.0648 11.8232C53.3191 11.674 52.7639 11.4155 52.3993 11.0476C52.0381 10.6797 51.8574 10.2107 51.8574 9.64062C51.8574 9.15009 51.99 8.72751 52.2551 8.37287C52.5236 8.01823 52.8998 7.74479 53.3837 7.55256C53.8709 7.36032 54.441 7.2642 55.0939 7.2642C56.0584 7.2642 56.8174 7.46804 57.3709 7.87571C57.9277 8.28338 58.2525 8.83854 58.3453 9.54119ZM61.0909 15.1293C60.7628 15.1293 60.4811 15.0133 60.2457 14.7812C60.0137 14.5459 59.8977 14.2642 59.8977 13.9361C59.8977 13.6113 60.0137 13.3329 60.2457 13.1009C60.4811 12.8688 60.7628 12.7528 61.0909 12.7528C61.4091 12.7528 61.6875 12.8688 61.9261 13.1009C62.1648 13.3329 62.2841 13.6113 62.2841 13.9361C62.2841 14.1548 62.2277 14.3554 62.1151 14.5376C62.0057 14.7166 61.8615 14.8608 61.6825 14.9702C61.5036 15.0762 61.3063 15.1293 61.0909 15.1293ZM61.0909 9.77983C60.7628 9.77983 60.4811 9.66383 60.2457 9.43182C60.0137 9.19981 59.8977 8.91809 59.8977 8.58665C59.8977 8.26184 60.0137 7.98509 60.2457 7.75639C60.4811 7.52438 60.7628 7.40838 61.0909 7.40838C61.4091 7.40838 61.6875 7.52438 61.9261 7.75639C62.1648 7.98509 62.2841 8.26184 62.2841 8.58665C62.2841 8.80871 62.2277 9.01089 62.1151 9.19318C62.0057 9.37216 61.8615 9.51468 61.6825 9.62074C61.5036 9.7268 61.3063 9.77983 61.0909 9.77983Z" fill="black"/>
<path d="M490.904 3.296H492.766V12.83H490.904V3.296ZM492.234 6.936H494.488V8.462H492.234V6.936ZM484.408 14.538H493.228V16.022H484.408V14.538ZM484.408 11.864H486.27V14.86H484.408V11.864ZM482.938 4.206H484.786V6.068H487.32V4.206H489.168V10.786H482.938V4.206ZM484.786 7.482V9.33H487.32V7.482H484.786ZM504.805 3.282H506.569V16.246H504.805V3.282ZM503.069 8.266H505.225V9.764H503.069V8.266ZM501.907 3.506H503.629V15.63H501.907V3.506ZM495.803 11.794H496.713C498.309 11.794 499.639 11.738 501.179 11.458L501.319 12.97C499.751 13.278 498.379 13.32 496.713 13.32H495.803V11.794ZM495.803 4.78H500.591V6.278H497.651V12.522H495.803V4.78Z" fill="black"/>
<path d="M538.03 6.754H546.976V8.224H538.03V6.754ZM538.03 3.632H539.878V7.342H538.03V3.632ZM536.574 9.778H548.306V11.262H536.574V9.778ZM541.516 7.636H543.364V10.226H541.516V7.636ZM537.946 14.538H547.088V16.022H537.946V14.538ZM537.946 12.06H539.794V15.294H537.946V12.06ZM551.707 4.99H553.163V5.802C553.163 8.014 552.323 10.058 550.237 10.884L549.271 9.47C551.021 8.756 551.707 7.286 551.707 5.802V4.99ZM552.071 4.99H553.499V5.802C553.499 7.23 554.143 8.518 555.753 9.148L554.801 10.576C552.841 9.792 552.071 7.944 552.071 5.802V4.99ZM549.691 4.234H555.431V5.718H549.691V4.234ZM558.721 3.296H560.485V11.136H558.721V3.296ZM557.167 6.404H559.225V7.902H557.167V6.404ZM556.019 3.534H557.755V10.744H556.019V3.534ZM556.089 11.332C558.805 11.332 560.555 12.256 560.555 13.796C560.555 15.322 558.805 16.246 556.089 16.246C553.359 16.246 551.637 15.322 551.637 13.796C551.637 12.256 553.359 11.332 556.089 11.332ZM556.089 12.746C554.423 12.746 553.485 13.096 553.485 13.796C553.485 14.496 554.423 14.832 556.089 14.832C557.755 14.832 558.679 14.496 558.679 13.796C558.679 13.096 557.755 12.746 556.089 12.746Z" fill="black"/>
<path d="M613.03 6.754H621.976V8.224H613.03V6.754ZM613.03 3.632H614.878V7.342H613.03V3.632ZM611.574 9.778H623.306V11.262H611.574V9.778ZM616.516 7.636H618.364V10.226H616.516V7.636ZM612.946 14.538H622.088V16.022H612.946V14.538ZM612.946 12.06H614.794V15.294H612.946V12.06ZM626.707 4.99H628.163V5.802C628.163 8.014 627.323 10.058 625.237 10.884L624.271 9.47C626.021 8.756 626.707 7.286 626.707 5.802V4.99ZM627.071 4.99H628.499V5.802C628.499 7.23 629.143 8.518 630.753 9.148L629.801 10.576C627.841 9.792 627.071 7.944 627.071 5.802V4.99ZM624.691 4.234H630.431V5.718H624.691V4.234ZM633.721 3.296H635.485V11.136H633.721V3.296ZM632.167 6.404H634.225V7.902H632.167V6.404ZM631.019 3.534H632.755V10.744H631.019V3.534ZM631.089 11.332C633.805 11.332 635.555 12.256 635.555 13.796C635.555 15.322 633.805 16.246 631.089 16.246C628.359 16.246 626.637 15.322 626.637 13.796C626.637 12.256 628.359 11.332 631.089 11.332ZM631.089 12.746C629.423 12.746 628.485 13.096 628.485 13.796C628.485 14.496 629.423 14.832 631.089 14.832C632.755 14.832 633.679 14.496 633.679 13.796C633.679 13.096 632.755 12.746 631.089 12.746ZM638.662 4.038H646.796V5.508H638.662V4.038ZM637.332 9.554H649.05V11.052H637.332V9.554ZM642.19 10.604H644.066V16.26H642.19V10.604ZM645.844 4.038H647.678V5.186C647.678 6.586 647.678 8.154 647.174 10.45L645.34 10.24C645.844 8.07 645.844 6.53 645.844 5.186V4.038ZM658.527 3.282H660.403V12.564H658.527V3.282ZM659.871 6.894H662.125V8.42H659.871V6.894ZM654.915 4.248H656.903C656.903 7.776 654.747 10.198 650.883 11.318L650.099 9.834C653.277 8.966 654.915 7.23 654.915 5.172V4.248ZM650.659 4.248H655.923V5.746H650.659V4.248ZM652.017 14.538H660.837V16.022H652.017V14.538ZM652.017 11.626H653.893V15.196H652.017V11.626Z" fill="black"/>
</svg>
